<svg fill="#FFFFFF" xmlns="http://www.w3.org/2000/svg"  viewBox="0 0 72 72" width="64px" height="64px"><path d="M 17.949219 11.603516 C 16.92458 11.660195 15.959844 12.391172 15.777344 13.560547 L 13.509766 28.105469 C 13.268766 29.655469 14.604297 30.992 16.154297 30.75 L 30.697266 28.482422 C 32.569266 28.190422 33.318516 25.896641 31.978516 24.556641 L 29.033203 21.611328 C 31.353298 20.483019 33.980617 19.887566 36.763672 20.017578 C 45.292672 20.416578 52.116047 27.689563 51.998047 36.226562 C 51.877047 44.958562 44.761 52 36 52 C 28.26 52 21.803312 46.505125 20.320312 39.203125 C 19.941312 37.339125 18.320297 36 16.404297 36 C 13.896297 36 11.975891 38.262031 12.462891 40.707031 C 14.649891 51.707031 24.356 60 36 60 C 49.758 60 60.812125 48.423469 59.953125 34.480469 C 59.213125 22.472469 49.405531 12.720063 37.394531 12.039062 C 32.140996 11.741249 27.232182 13.141192 23.154297 15.732422 L 19.701172 12.28125 C 19.199047 11.779125 18.564002 11.569508 17.949219 11.603516 z"/></svg>