<svg fill="#FFFFFF" xmlns="http://www.w3.org/2000/svg"  viewBox="0 0 72 72" width="64px" height="64px"><path d="M 50.070312 9.1113281 C 49.457674 9.1726406 48.860281 9.4770312 48.441406 10.050781 L 45.5625 13.994141 C 41.133998 12.063285 36.069643 11.437868 30.923828 12.542969 C 19.161828 15.068969 10.977656 26.218313 12.097656 38.195312 C 13.401656 52.104312 26.108172 61.835891 39.701172 59.712891 C 51.205172 57.915891 59.516469 48.224578 59.980469 37.017578 C 60.083469 34.526578 57.835422 32.587609 55.357422 32.974609 C 53.464422 33.270609 52.070375 34.844141 51.984375 36.744141 C 51.645375 44.188141 46.11575 50.614594 38.46875 51.808594 C 29.81275 53.160594 21.693562 47.300406 20.226562 38.691406 C 18.792563 30.275406 24.412344 22.037172 32.777344 20.326172 C 35.507837 19.768092 38.196726 19.95137 40.664062 20.708984 L 38.207031 24.074219 C 37.090031 25.604219 38.184125 27.754906 40.078125 27.753906 L 54.798828 27.75 C 56.367828 27.75 57.481906 26.222516 57.003906 24.728516 L 52.517578 10.708984 C 52.156328 9.5814844 51.091377 9.0091406 50.070312 9.1113281 z"/></svg>